<svg width="30" height="30" viewBox="0 0 30 30" fill="none" xmlns="http://www.w3.org/2000/svg">
<rect width="30" height="30" rx="14" fill="#0AFF05"/>
<path fill-rule="evenodd" clip-rule="evenodd" d="M8.75 7.5C8.75 4.73858 10.9886 2.5 13.75 2.5H16.25C19.0114 2.5 21.25 4.73858 21.25 7.5V15C21.25 17.7614 19.0114 20 16.25 20H13.75C10.9886 20 8.75 17.7614 8.75 15V7.5ZM13.75 5C12.3693 5 11.25 6.11929 11.25 7.5V15C11.25 16.3807 12.3693 17.5 13.75 17.5H16.25C17.6307 17.5 18.75 16.3807 18.75 15V7.5C18.75 6.11929 17.6307 5 16.25 5H13.75Z" fill="#2F2F2F"/>
<path fill-rule="evenodd" clip-rule="evenodd" d="M6.25 12.5C6.94036 12.5 7.5 13.0596 7.5 13.75V15C7.5 18.4518 10.2982 21.25 13.75 21.25H16.25C19.7018 21.25 22.5 18.4518 22.5 15V13.75C22.5 13.0596 23.0596 12.5 23.75 12.5C24.4404 12.5 25 13.0596 25 13.75V15C25 19.8325 21.0825 23.75 16.25 23.75H13.75C8.91751 23.75 5 19.8325 5 15V13.75C5 13.0596 5.55964 12.5 6.25 12.5Z" fill="#2F2F2F"/>
<path fill-rule="evenodd" clip-rule="evenodd" d="M15 21.25C15.6904 21.25 16.25 21.8096 16.25 22.5V26.25C16.25 26.9404 15.6904 27.5 15 27.5C14.3096 27.5 13.75 26.9404 13.75 26.25L13.75 22.5C13.75 21.8096 14.3096 21.25 15 21.25Z" fill="#2F2F2F"/>
</svg>
