<svg width="17" height="17" viewBox="0 0 17 17" fill="none" xmlns="http://www.w3.org/2000/svg">
<path fill-rule="evenodd" clip-rule="evenodd" d="M13.1896 1.87954C14.3117 1.55894 15.3491 2.59636 15.0285 3.71846L12.1955 13.6342C11.7232 15.287 9.51541 15.5975 8.60566 14.139L6.62415 10.9623C6.4527 10.6874 6.22066 10.4554 5.94579 10.2839L2.76909 8.30243C1.3106 7.39268 1.62106 5.18485 3.27389 4.71261L13.1896 1.87954ZM13.6161 3.23994C13.6089 3.23793 13.5979 3.23625 13.5788 3.2417L3.66308 6.07477C3.19085 6.2097 3.10214 6.8405 3.51885 7.10043L6.69556 9.08194C7.15367 9.3677 7.54039 9.75442 7.82615 10.2125L9.80766 13.3892C10.0676 13.8059 10.6984 13.7172 10.8333 13.245L13.6664 3.32927C13.6718 3.31018 13.6702 3.29922 13.6681 3.29199C13.6655 3.28251 13.6593 3.2707 13.6484 3.25972C13.6374 3.24875 13.6256 3.24259 13.6161 3.23994Z" fill="black"/>
<path fill-rule="evenodd" clip-rule="evenodd" d="M10.2249 6.68314C10.5015 6.95976 10.5015 7.40825 10.2249 7.68487L7.72055 10.1892C7.44393 10.4658 6.99544 10.4658 6.71882 10.1892C6.4422 9.91259 6.4422 9.46409 6.71882 9.18747L9.22315 6.68314C9.49978 6.40651 9.94827 6.40651 10.2249 6.68314Z" fill="black"/>
</svg>
